<?xml version="1.0" standalone="no"?>
<!DOCTYPE svg PUBLIC "-//W3C//DTD SVG 20010904//EN"
 "http://www.w3.org/TR/2001/REC-SVG-20010904/DTD/svg10.dtd">
<svg version="1.0" xmlns="http://www.w3.org/2000/svg"
 width="800.000000pt" height="800.000000pt" viewBox="0 0 800.000000 800.000000"
 preserveAspectRatio="xMidYMid meet">
<metadata>
Created by potrace 1.14, written by Peter Selinger 2001-2017
</metadata>
<g transform="translate(0.000000,800.000000) scale(0.100000,-0.100000)"
fill="#000000" stroke="none">
<path d="M3643 6699 c-53 -10 -96 -43 -128 -94 l-30 -48 0 -358 1 -358 29 -43
c33 -46 79 -77 128 -87 29 -6 32 -10 32 -49 0 -39 -3 -45 -32 -58 -18 -9 -36
-27 -41 -43 -5 -15 -10 -146 -11 -292 -1 -294 6 -337 59 -402 55 -65 108 -89
214 -95 l92 -5 1 -126 1 -126 31 -27 c28 -25 38 -28 93 -26 l62 2 1 -33 c0
-40 2 -39 -130 -42 -94 -1 -132 -15 -181 -63 -27 -28 -54 -98 -54 -144 -1 -78
-69 -170 -142 -190 -18 -5 -175 -9 -349 -9 -265 -1 -325 -3 -374 -17 -139 -41
-244 -151 -279 -291 -12 -50 -15 -159 -13 -661 l2 -600 25 -37 c40 -59 69 -65
293 -65 181 0 198 1 222 20 16 12 25 29 25 47 0 15 9 37 20 49 19 20 31 22
153 23 295 2 286 4 337 -45 307 -295 809 -294 1124 2 l43 40 164 4 c151 3 167
5 195 25 67 48 66 37 66 628 0 588 0 585 -63 685 -27 44 -30 71 -14 119 3 7 0
19 -5 27 -8 9 -8 24 -1 48 l9 36 -81 24 c-45 13 -118 34 -162 46 -44 12 -90
26 -102 30 -28 11 -52 -7 -55 -42 -1 -15 -5 -26 -8 -26 -20 2 -30 -4 -30 -17
0 -46 -73 27 -89 89 -6 22 -12 59 -15 81 -7 58 -19 85 -56 123 -48 51 -90 64
-202 65 -54 0 -98 3 -99 6 -9 53 -6 61 25 62 17 1 39 0 49 -1 10 -1 33 4 51
10 48 15 58 49 59 185 l1 115 71 0 c127 0 215 49 265 146 25 48 25 53 28 328
3 311 -1 335 -51 360 -29 13 -33 19 -31 53 2 54 2 53 24 53 27 0 90 32 111 56
9 11 25 35 35 54 16 32 18 66 18 385 0 382 -1 386 -61 443 -62 58 -37 56 -663
57 -317 0 -590 -2 -607 -6z m1135 -228 c13 -1 37 -14 53 -31 l30 -29 -3 -271
-3 -270 -33 -32 -32 -33 -546 -3 c-483 -2 -549 -1 -579 14 -61 28 -65 51 -65
337 0 254 0 256 23 283 17 19 37 29 68 33 33 4 915 6 1087 2z m-407 -2811
c261 -46 463 -235 530 -495 29 -111 21 -266 -19 -373 -98 -263 -324 -429 -597
-438 -199 -7 -362 59 -500 202 -115 119 -175 262 -180 431 -7 194 59 361 194
492 155 151 365 218 572 181z"/>
<path d="M4176 3274 c-62 -22 -103 -52 -139 -102 -129 -178 -8 -428 211 -438
108 -4 204 51 257 148 57 104 31 259 -56 332 -79 67 -187 90 -273 60z m20
-112 c28 -19 24 -44 -14 -81 -20 -21 -42 -46 -47 -56 -10 -17 -12 -17 -28 -1
-21 21 -22 67 -2 106 19 37 62 52 91 32z m218 -208 c18 -18 20 -47 6 -75 -17
-30 -36 -22 -50 21 -10 32 -11 42 0 55 16 19 25 19 44 -1z"/>
<path d="M3094 6076 c-243 -84 -501 -216 -719 -370 -209 -147 -447 -369 -580
-540 -16 -21 -35 -44 -40 -50 -6 -6 -33 -42 -61 -81 -192 -262 -337 -554 -435
-875 -16 -52 -29 -101 -29 -107 0 -10 23 -13 83 -13 l82 1 49 152 c27 84 53
159 57 167 5 8 23 47 40 85 65 143 86 184 180 337 300 487 776 884 1319 1100
63 26 134 51 157 57 23 6 45 16 48 21 7 11 10 158 4 164 -2 2 -72 -19 -155
-48z"/>
<path d="M5180 5923 l1 -88 97 -47 c105 -50 315 -174 320 -189 2 -5 8 -9 13
-9 13 0 156 -109 249 -190 195 -170 358 -357 506 -580 129 -196 256 -470 324
-697 l25 -83 83 0 c59 0 82 3 82 13 -1 52 -111 357 -190 522 -247 521 -627
936 -1156 1264 -61 37 -329 171 -344 171 -6 0 -10 -33 -10 -87z"/>
<path d="M1110 3670 l-34 -5 -1 -248 0 -248 70 3 70 3 -3 135 c-2 124 -1 133
13 115 26 -33 50 -65 119 -160 71 -96 90 -107 162 -95 l31 5 0 145 c0 80 1
186 3 235 1 50 2 96 1 103 -1 8 -22 12 -71 12 l-69 0 5 -137 5 -138 -20 20
c-11 11 -47 58 -80 105 -33 47 -64 90 -69 95 -5 6 -17 23 -26 38 -19 28 -26
29 -106 17z"/>
<path d="M6606 3418 l0 -243 73 -3 72 -3 -1 83 c-1 46 -2 89 -1 96 1 9 26 12
92 12 l90 0 -3 -92 -3 -93 69 -3 c77 -3 85 2 80 51 -3 29 -5 332 -2 382 3 55
2 55 -73 55 l-70 0 1 -67 c3 -127 13 -114 -92 -111 l-93 3 3 88 2 87 -72 0
-73 0 1 -242z"/>
<path d="M2735 1781 c-176 -83 -179 -345 -6 -430 103 -50 235 -1 287 107 23
48 26 145 6 197 -18 49 -65 101 -112 124 -49 25 -126 26 -175 2z m139 -75 c71
-30 107 -134 71 -210 -37 -77 -130 -108 -195 -64 -92 62 -92 202 0 266 38 25
76 28 124 8z"/>
<path d="M3562 1789 c-44 -17 -117 -101 -131 -152 -18 -62 -9 -147 20 -195 28
-44 33 -50 78 -82 67 -47 211 -31 259 29 56 70 66 96 67 171 0 51 -5 86 -17
110 -20 41 -70 92 -113 113 -33 16 -127 20 -163 6z m132 -83 c105 -44 114
-206 16 -273 -90 -62 -210 14 -210 132 0 113 96 182 194 141z"/>
<path d="M4027 1785 c-83 -29 -137 -117 -137 -220 0 -106 54 -188 147 -225 37
-14 148 -9 181 9 14 8 29 8 47 1 36 -14 35 -15 31 28 -3 20 -5 70 -5 110 l-1
72 -44 0 -43 0 4 -42 c2 -24 5 -50 7 -59 8 -37 -110 -62 -162 -35 -133 69 -89
300 55 292 35 -2 51 -10 81 -39 l38 -37 22 23 c31 33 28 51 -15 86 -61 50
-132 63 -206 36z"/>
<path d="M4438 1792 c-65 -2 -78 -6 -79 -20 -1 -23 -1 -381 0 -410 1 -21 5
-23 38 -20 l38 3 0 75 0 75 54 0 55 0 32 -75 33 -75 46 -3 c45 -3 46 -2 40 20
-4 13 -21 49 -36 80 -35 69 -35 73 -6 101 24 22 45 71 41 95 -1 6 -2 25 -3 42
-2 45 -53 97 -104 105 -59 10 -63 10 -149 7z m145 -84 c22 -16 27 -27 27 -62
0 -68 -16 -81 -102 -81 l-73 0 -1 70 c0 39 1 76 4 83 7 21 111 13 145 -10z"/>
<path d="M4920 1792 l-36 -3 -57 -142 c-31 -78 -70 -179 -86 -224 l-30 -83 44
0 c37 0 45 4 50 23 23 80 18 77 119 77 l92 0 21 -50 c21 -49 22 -50 63 -50 44
0 46 6 20 65 -26 59 -70 171 -70 177 0 5 -9 30 -21 56 -23 51 -31 70 -49 120
-15 38 -15 38 -60 34z m70 -279 c0 -9 -18 -13 -63 -13 -35 0 -66 3 -69 6 -3 3
6 38 21 77 15 40 31 81 35 92 6 16 15 3 42 -64 19 -47 34 -91 34 -98z"/>
<path d="M1737 1587 c1 -111 2 -212 2 -225 1 -21 5 -23 39 -20 l37 3 2 54 c1
29 4 55 7 58 2 3 44 6 93 7 101 1 127 13 160 73 44 81 17 190 -57 232 -33 18
-54 21 -161 21 l-124 0 2 -203z m222 133 c57 -23 76 -116 35 -167 -19 -24 -29
-28 -92 -31 -61 -4 -71 -2 -79 14 -11 21 -11 163 0 180 8 14 105 17 136 4z"/>
<path d="M2146 1568 l1 -223 42 -3 41 -3 0 101 0 101 118 -3 117 -3 -2 -97 -2
-98 43 0 43 0 -1 225 0 225 -41 0 -41 0 0 -92 1 -93 -117 -3 c-107 -2 -118 -1
-119 15 -1 10 0 53 1 96 l2 77 -44 0 -43 0 1 -222z"/>
<path d="M3074 1773 c-2 -7 -6 -20 -9 -28 -4 -12 7 -15 60 -15 l65 0 1 -57 c2
-81 2 -126 0 -218 -4 -125 -7 -117 41 -113 l43 3 0 190 0 190 58 3 c55 3 57 4
57 30 l0 27 -156 0 c-117 0 -157 -3 -160 -12z"/>
<path d="M5177 1588 c1 -112 2 -213 2 -226 1 -21 5 -23 38 -20 l37 3 4 55 c1
30 5 56 7 58 2 2 40 4 84 4 98 0 136 18 168 78 41 78 20 180 -48 226 -27 20
-45 22 -162 23 l-132 2 2 -203z m223 132 c72 -30 75 -163 4 -190 -30 -12 -124
-13 -139 -2 -8 5 -13 165 -6 192 2 10 116 11 141 0z"/>
<path d="M5596 1568 l1 -223 42 -3 42 -3 -1 73 c-1 40 -1 85 -1 101 l1 27 114
0 c82 0 115 -3 118 -12 3 -7 3 -52 1 -100 l-4 -88 43 0 43 0 0 225 1 225 -42
0 -41 0 1 -92 1 -93 -120 0 -120 0 3 93 3 92 -43 0 -43 0 1 -222z"/>
<path d="M6041 1720 c1 -65 4 -73 42 -127 22 -32 44 -60 47 -63 3 -3 16 -18
28 -35 19 -24 23 -40 21 -90 l-3 -60 46 -3 46 -3 -1 64 c-1 63 0 65 57 138 75
96 83 113 82 184 l-1 60 -43 3 -44 3 2 -43 c1 -24 1 -53 1 -64 -1 -27 -88
-147 -101 -139 -4 3 -29 32 -53 65 -43 56 -45 62 -43 120 l3 60 -43 0 -43 0 0
-70z"/>
</g>
</svg>
